<?xml version="1.0" encoding="UTF-8"?>
<!-- Uploaded to: SVG Repo, www.svgrepo.com, Generator: SVG Repo Mixer Tools -->
<svg viewBox="0 0 24 24" fill="currentColor" xmlns="http://www.w3.org/2000/svg">
<path d="M12.44 14.75H3.75C3.34 14.75 3 14.41 3 14C3 13.59 3.34 13.25 3.75 13.25H12.44L10.72 11.53C10.43 11.24 10.43 10.76 10.72 10.47C11.01 10.18 11.49 10.18 11.78 10.47L14.78 13.47C14.85 13.54 14.9 13.62 14.94 13.71C15.02 13.89 15.02 14.1 14.94 14.28C14.9 14.37 14.85 14.45 14.78 14.52L11.78 17.52C11.63 17.67 11.44 17.74 11.25 17.74C11.06 17.74 10.87 17.67 10.72 17.52C10.43 17.23 10.43 16.75 10.72 16.46L12.44 14.74V14.75ZM21 9.5V18C21 19.52 19.77 20.75 18.25 20.75H10.75C9.23 20.75 8 19.52 8 18V17C8 16.59 8.34 16.25 8.75 16.25C9.16 16.25 9.5 16.59 9.5 17V18C9.5 18.69 10.06 19.25 10.75 19.25H18.25C18.94 19.25 19.5 18.69 19.5 18V10.25H14.75C14.34 10.25 14 9.91 14 9.5V4.75H10.75C10.06 4.75 9.5 5.31 9.5 6V11C9.5 11.41 9.16 11.75 8.75 11.75C8.34 11.75 8 11.41 8 11V6C8 4.48 9.23 3.25 10.75 3.25H14.75C14.95 3.25 15.14 3.33 15.28 3.47L20.78 8.97C20.92 9.11 21 9.3 21 9.5ZM15.5 8.75H18.44L15.5 5.81V8.75Z"/>
</svg>